<?xml version="1.0" encoding="UTF-8" standalone="no"?>
<!-- Created with Inkscape (http://www.inkscape.org/) -->

<svg
   xmlns:dc="http://purl.org/dc/elements/1.1/"
   xmlns:cc="http://creativecommons.org/ns#"
   xmlns:rdf="http://www.w3.org/1999/02/22-rdf-syntax-ns#"
   xmlns:svg="http://www.w3.org/2000/svg"
   xmlns="http://www.w3.org/2000/svg"
   xmlns:sodipodi="http://sodipodi.sourceforge.net/DTD/sodipodi-0.dtd"
   xmlns:inkscape="http://www.inkscape.org/namespaces/inkscape"
   width="424.16486mm"
   height="210.91071mm"
   viewBox="0 0 424.16486 210.91071"
   version="1.1"
   id="svg16"
   inkscape:version="0.92.3 (2405546, 2018-03-11)"
   sodipodi:docname="img-type.svg">
  <defs
     id="defs10" />
  <sodipodi:namedview
     id="base"
     pagecolor="#ffffff"
     bordercolor="#666666"
     borderopacity="1.0"
     inkscape:pageopacity="0.0"
     inkscape:pageshadow="2"
     inkscape:zoom="0.24748737"
     inkscape:cx="348.55816"
     inkscape:cy="179.01016"
     inkscape:document-units="mm"
     inkscape:current-layer="layer1"
     showgrid="false"
     fit-margin-top="0"
     fit-margin-left="0"
     fit-margin-right="0"
     fit-margin-bottom="0"
     inkscape:window-width="1920"
     inkscape:window-height="1017"
     inkscape:window-x="1358"
     inkscape:window-y="-8"
     inkscape:window-maximized="1" />
  <metadata
     id="metadata13">
    <rdf:RDF>
      <cc:Work
         rdf:about="">
        <dc:format>image/svg+xml</dc:format>
        <dc:type
           rdf:resource="http://purl.org/dc/dcmitype/StillImage" />
        <dc:title></dc:title>
      </cc:Work>
    </rdf:RDF>
  </metadata>
  <g
     inkscape:label="Calque 1"
     inkscape:groupmode="layer"
     id="layer1"
     transform="translate(403.18719,88.15773)">
    <rect
       style="fill:#b3b3b3;fill-opacity:1;stroke-width:0.26458332"
       id="rect40"
       width="424.16486"
       height="210.91071"
       x="-403.18719"
       y="-88.15773" />
    <g
       id="g165"
       transform="matrix(2.030979,0,0,2.030979,-367.48555,-34.116431)">
      <g
         id="g106">
	<path
   id="path98"
   d="m 41,27 h -3 c -0.552,0 -1,-0.448 -1,-1 0,-0.552 0.448,-1 1,-1 h 3 c 0.552,0 1,0.448 1,1 0,0.552 -0.448,1 -1,1 z"
   style="fill:#fbd490"
   inkscape:connector-curvature="0" />

	<path
   id="path100"
   d="m 51,27 h -2 c -0.552,0 -1,-0.448 -1,-1 0,-0.552 0.448,-1 1,-1 h 2 c 0.552,0 1,0.448 1,1 0,0.552 -0.448,1 -1,1 z"
   style="fill:#fbd490"
   inkscape:connector-curvature="0" />

	<path
   id="path102"
   d="m 44.385,44.385 c -10.154,10.154 -26.616,10.154 -36.77,0 -10.154,-10.154 -10.154,-26.616 0,-36.77 10.154,-10.154 26.616,-10.154 36.77,0 L 26,26 Z"
   style="fill:#f0c419"
   inkscape:connector-curvature="0" />

	<circle
   id="circle104"
   r="3"
   cy="12"
   cx="23"
   style="fill:#556080" />

</g>
      <g
         id="g108">
</g>
      <g
         id="g110">
</g>
      <g
         id="g112">
</g>
      <g
         id="g114">
</g>
      <g
         id="g116">
</g>
      <g
         id="g118">
</g>
      <g
         id="g120">
</g>
      <g
         id="g122">
</g>
      <g
         id="g124">
</g>
      <g
         id="g126">
</g>
      <g
         id="g128">
</g>
      <g
         id="g130">
</g>
      <g
         id="g132">
</g>
      <g
         id="g134">
</g>
      <g
         id="g136">
</g>
    </g>
    <g
       id="g240"
       transform="matrix(2.030979,0,0,2.030979,-119.59361,-45.278655)">
      <g
         id="g179">
	<path
   id="path167"
   d="M 6.413,22 V 56.047 L 11.46,51 17.286,56.826 23.112,51 28.913,56.801 34.714,51 40.54,56.826 46.366,51 50.413,55.047 V 22 c 0,-12.15 -9.85,-22 -22,-22 v 0 c -12.15,0 -22,9.85 -22,22 z"
   style="fill:#4482c3"
   inkscape:connector-curvature="0" />

	<path
   id="path169"
   d="m 36.413,37 c -0.334,0 -0.646,-0.167 -0.832,-0.445 l -3.168,-4.752 -3.168,4.752 c -0.371,0.557 -1.293,0.557 -1.664,0 l -3.168,-4.752 -3.168,4.752 c -0.371,0.557 -1.293,0.557 -1.664,0 l -4,-6 c -0.306,-0.459 -0.182,-1.081 0.277,-1.387 0.459,-0.307 1.079,-0.182 1.387,0.277 l 3.168,4.752 3.168,-4.752 c 0.371,-0.557 1.293,-0.557 1.664,0 l 3.168,4.752 3.168,-4.752 c 0.371,-0.557 1.293,-0.557 1.664,0 l 3.168,4.752 3.168,-4.752 c 0.306,-0.459 0.926,-0.584 1.387,-0.277 0.459,0.306 0.583,0.927 0.277,1.387 l -4,6 C 37.059,36.833 36.747,37 36.413,37 Z"
   style="fill:#35638c"
   inkscape:connector-curvature="0" />

	<circle
   id="circle171"
   r="4"
   cy="19"
   cx="22.413"
   style="fill:#ffffff" />

	<circle
   id="circle173"
   r="4"
   cy="19"
   cx="35.412998"
   style="fill:#ffffff" />

	<circle
   id="circle175"
   r="1"
   cy="18"
   cx="23.413"
   style="fill:#35638c" />

	<circle
   id="circle177"
   r="1"
   cy="20"
   cx="35.412998"
   style="fill:#35638c" />

</g>
      <g
         id="g181">
</g>
      <g
         id="g183">
</g>
      <g
         id="g185">
</g>
      <g
         id="g187">
</g>
      <g
         id="g189">
</g>
      <g
         id="g191">
</g>
      <g
         id="g193">
</g>
      <g
         id="g195">
</g>
      <g
         id="g197">
</g>
      <g
         id="g199">
</g>
      <g
         id="g201">
</g>
      <g
         id="g203">
</g>
      <g
         id="g205">
</g>
      <g
         id="g207">
</g>
      <g
         id="g209">
</g>
    </g>
    <circle
       style="fill:#ffcc00;fill-opacity:1;stroke-width:0.26458332"
       id="path242"
       cx="-219.95329"
       cy="20.639921"
       r="22.45064" />
    <circle
       style="fill:#ffcc00;fill-opacity:1;stroke-width:0.26458332"
       id="path242-7"
       cx="-153.67043"
       cy="21.708979"
       r="22.45064" />
  </g>
</svg>
