<?xml version="1.0" encoding="UTF-8" standalone="no"?>
<!-- Created with Inkscape (http://www.inkscape.org/) -->

<svg
   xmlns:dc="http://purl.org/dc/elements/1.1/"
   xmlns:cc="http://creativecommons.org/ns#"
   xmlns:rdf="http://www.w3.org/1999/02/22-rdf-syntax-ns#"
   xmlns:svg="http://www.w3.org/2000/svg"
   xmlns="http://www.w3.org/2000/svg"
   xmlns:sodipodi="http://sodipodi.sourceforge.net/DTD/sodipodi-0.dtd"
   xmlns:inkscape="http://www.inkscape.org/namespaces/inkscape"
   width="350"
   height="200"
   viewBox="0 0 92.604163 52.916667"
   version="1.1"
   id="svg8"
   inkscape:version="0.92.3 (2405546, 2018-03-11)"
   sodipodi:docname="ban-deplacements.svg">
  <defs
     id="defs2" />
  <sodipodi:namedview
     id="base"
     pagecolor="#ffffff"
     bordercolor="#666666"
     borderopacity="1.0"
     inkscape:pageopacity="0.0"
     inkscape:pageshadow="2"
     inkscape:zoom="1.979899"
     inkscape:cx="211.02609"
     inkscape:cy="143.83468"
     inkscape:document-units="mm"
     inkscape:current-layer="layer1"
     showgrid="false"
     fit-margin-top="0"
     fit-margin-left="0"
     fit-margin-right="0"
     fit-margin-bottom="0"
     inkscape:window-width="1920"
     inkscape:window-height="950"
     inkscape:window-x="-9"
     inkscape:window-y="-9"
     inkscape:window-maximized="1"
     showguides="true"
     inkscape:guide-bbox="true"
     units="px" />
  <metadata
     id="metadata5">
    <rdf:RDF>
      <cc:Work
         rdf:about="">
        <dc:format>image/svg+xml</dc:format>
        <dc:type
           rdf:resource="http://purl.org/dc/dcmitype/StillImage" />
        <dc:title></dc:title>
      </cc:Work>
    </rdf:RDF>
  </metadata>
  <g
     inkscape:label="Calque 1"
     inkscape:groupmode="layer"
     id="layer1"
     transform="translate(-24.190477,-52.07142)">
    <rect
       style="fill:#233c4f;fill-opacity:1;stroke:none;stroke-width:0.51228946;stroke-linejoin:miter;stroke-miterlimit:4;stroke-dasharray:none;stroke-opacity:1"
       id="rect2160-7-3"
       width="93.412338"
       height="53.473812"
       x="24.060938"
       y="51.865231"
       ry="0" />
    <g
       id="g5365"
       transform="matrix(0.72353371,0,0,0.72353371,56.22405,56.199731)"
       style="fill:#ffffff;fill-opacity:1">
      <g
         id="g5308"
         style="fill:#ffffff;fill-opacity:1">
        <g
           id="g5306"
           style="fill:#ffffff;fill-opacity:1">
          <path
             id="path5304"
             d="M 38.831,14.26 C 38.64,14.027 38.355,13.891 38.056,13.891 H 34.255 C 33.317,11.417 32.095,8.993 30.706,8.078 25.901,4.917 13.156,4.917 8.351,8.078 6.961,8.994 5.744,11.421 4.801,13.891 H 1 c -0.302,0 -0.586,0.136 -0.775,0.369 -0.19,0.232 -0.266,0.539 -0.204,0.834 l 0.563,2.728 c 0.096,0.465 0.506,0.797 0.979,0.797 h 1.126 c -1.087,1.254 -1.614,2.833 -1.621,4.413 -0.007,1.952 0.734,3.716 2.089,4.964 0.015,0.013 0.03,0.022 0.044,0.035 v 3.817 c 0,0.827 0.672,1.5 1.5,1.5 h 3.506 c 0.828,0 1.5,-0.673 1.5,-1.5 v -1.534 h 19.641 v 1.534 c 0,0.827 0.672,1.5 1.5,1.5 h 3.506 c 0.826,0 1.5,-0.673 1.5,-1.5 v -3.742 c 1.438,-1.317 2.125,-3.129 2.134,-4.938 0.006,-1.634 -0.545,-3.271 -1.696,-4.551 h 1.201 c 0.475,0 0.885,-0.332 0.979,-0.798 l 0.564,-2.727 C 39.094,14.799 39.021,14.494 38.831,14.26 Z M 9.998,10.583 c 3.83,-2.521 15.229,-2.521 19.057,0 0.744,0.488 1.701,2.461 2.578,4.877 H 7.422 C 8.297,13.045 9.254,11.073 9.998,10.583 Z M 5.512,23.408 c 0,-1.63 1.322,-2.95 2.951,-2.95 1.631,0 2.951,1.32 2.951,2.95 0,1.63 -1.32,2.951 -2.951,2.951 -1.629,0 -2.951,-1.321 -2.951,-2.951 z m 25.119,2.951 c -1.629,0 -2.951,-1.321 -2.951,-2.951 0,-1.63 1.322,-2.95 2.951,-2.95 1.631,0 2.951,1.32 2.951,2.95 0,1.63 -1.322,2.951 -2.951,2.951 z"
             inkscape:connector-curvature="0"
             style="fill:#ffffff;fill-opacity:1" />
        </g>
      </g>
      <g
         id="g5310"
         style="fill:#ffffff;fill-opacity:1" />
      <g
         id="g5312"
         style="fill:#ffffff;fill-opacity:1" />
      <g
         id="g5314"
         style="fill:#ffffff;fill-opacity:1" />
      <g
         id="g5316"
         style="fill:#ffffff;fill-opacity:1" />
      <g
         id="g5318"
         style="fill:#ffffff;fill-opacity:1" />
      <g
         id="g5320"
         style="fill:#ffffff;fill-opacity:1" />
      <g
         id="g5322"
         style="fill:#ffffff;fill-opacity:1" />
      <g
         id="g5324"
         style="fill:#ffffff;fill-opacity:1" />
      <g
         id="g5326"
         style="fill:#ffffff;fill-opacity:1" />
      <g
         id="g5328"
         style="fill:#ffffff;fill-opacity:1" />
      <g
         id="g5330"
         style="fill:#ffffff;fill-opacity:1" />
      <g
         id="g5332"
         style="fill:#ffffff;fill-opacity:1" />
      <g
         id="g5334"
         style="fill:#ffffff;fill-opacity:1" />
      <g
         id="g5336"
         style="fill:#ffffff;fill-opacity:1" />
      <g
         id="g5338"
         style="fill:#ffffff;fill-opacity:1" />
    </g>
    <text
       xml:space="preserve"
       style="font-style:normal;font-weight:normal;font-size:7.31070471px;line-height:20;font-family:sans-serif;letter-spacing:0px;word-spacing:0px;fill:#ffffff;fill-opacity:1;stroke:#ffffff;stroke-width:0.69391346;stroke-miterlimit:4;stroke-dasharray:none;stroke-opacity:1"
       x="43.767338"
       y="89.863159"
       id="text5591"
       transform="scale(0.96521006,1.0360439)"><tspan
         sodipodi:role="line"
         id="tspan5589"
         x="43.767338"
         y="89.863159"
         style="font-style:normal;font-variant:normal;font-weight:normal;font-stretch:normal;font-family:sans-serif;-inkscape-font-specification:sans-serif;fill:#ffffff;fill-opacity:1;stroke:#ffffff;stroke-width:0.69391346;stroke-miterlimit:4;stroke-dasharray:none;stroke-opacity:1">DEPLACEMENTS</tspan></text>
    <rect
       style="fill:#ffffff;fill-opacity:1;stroke:none;stroke-width:0.29968318"
       id="rect5593"
       width="60.778732"
       height="1.6917647"
       x="40.818008"
       y="83.94297" />
    <rect
       style="fill:#ffffff;fill-opacity:1;stroke:none;stroke-width:0.2995587"
       id="rect5593-0"
       width="60.728252"
       height="1.6917647"
       x="40.826813"
       y="95.260414" />
  </g>
</svg>
