<?xml version="1.0" encoding="UTF-8" standalone="no"?>
<!-- Created with Inkscape (http://www.inkscape.org/) -->

<svg
   xmlns:dc="http://purl.org/dc/elements/1.1/"
   xmlns:cc="http://creativecommons.org/ns#"
   xmlns:rdf="http://www.w3.org/1999/02/22-rdf-syntax-ns#"
   xmlns:svg="http://www.w3.org/2000/svg"
   xmlns="http://www.w3.org/2000/svg"
   xmlns:sodipodi="http://sodipodi.sourceforge.net/DTD/sodipodi-0.dtd"
   xmlns:inkscape="http://www.inkscape.org/namespaces/inkscape"
   width="424.16486mm"
   height="210.91071mm"
   viewBox="0 0 424.16486 210.91071"
   version="1.1"
   id="svg16"
   inkscape:version="0.92.3 (2405546, 2018-03-11)"
   sodipodi:docname="img-surichat.svg">
  <defs
     id="defs10" />
  <sodipodi:namedview
     id="base"
     pagecolor="#ffffff"
     bordercolor="#666666"
     borderopacity="1.0"
     inkscape:pageopacity="0.0"
     inkscape:pageshadow="2"
     inkscape:zoom="0.35"
     inkscape:cx="1923.8571"
     inkscape:cy="681.3769"
     inkscape:document-units="mm"
     inkscape:current-layer="layer1"
     showgrid="false"
     fit-margin-top="0"
     fit-margin-left="0"
     fit-margin-right="0"
     fit-margin-bottom="0"
     inkscape:window-width="1920"
     inkscape:window-height="1017"
     inkscape:window-x="1358"
     inkscape:window-y="-8"
     inkscape:window-maximized="1" />
  <metadata
     id="metadata13">
    <rdf:RDF>
      <cc:Work
         rdf:about="">
        <dc:format>image/svg+xml</dc:format>
        <dc:type
           rdf:resource="http://purl.org/dc/dcmitype/StillImage" />
        <dc:title></dc:title>
      </cc:Work>
    </rdf:RDF>
  </metadata>
  <g
     inkscape:label="Calque 1"
     inkscape:groupmode="layer"
     id="layer1"
     transform="translate(403.18719,88.15773)">
    <rect
       style="fill:#b3b3b3;fill-opacity:1;stroke-width:0.26458332"
       id="rect40"
       width="424.16486"
       height="210.91071"
       x="-403.18719"
       y="-88.15773" />
    <g
       id="g96"
       transform="matrix(1.447205,0,0,1.447205,61.693228,-19.093648)">
      <path
         id="path46"
         d="m -123.37453,26.903086 c 6.27352,-6.46059 10.05727,-14.827 10.05727,-23.9685598 0,-20.4576702 -20.53931,-37.0416702 -43.92083,-37.0416702 -23.38152,0 -42.33333,16.584 -42.33333,37.0416702 l 42.33333,37.0416698 c 6.24664,0 13.7666,-1.18546 19.10581,-3.3104 4.83588,5.2865 11.79256,8.60206 19.52336,8.60206 -4.97128,-4.97127 -6.56188,-12.04887 -4.76561,-18.36477 z m 0,0"
         inkscape:connector-curvature="0"
         style="fill:#e87288;stroke-width:0.26458332" />
      <path
         id="path48"
         d="m -177.75673,8.2261962 c 12.29588,6.4822898 20.51864,18.2748498 20.51864,31.7499998 0,20.45766 -18.95182,37.04166 -42.33333,37.04166 -6.24665,0 -13.76661,-1.18546 -19.10581,-3.31039 -4.83588,5.2865 -11.79257,8.60206 -19.52336,8.60206 4.97127,-4.97127 6.56187,-12.04888 4.7656,-18.36477 -6.27352,-6.46059 -10.05727,-14.827 -10.05727,-23.96856 0,-20.45767 20.53932,-37.0416698 43.92084,-37.0416698 7.97987,0 15.44608,1.93166 21.81469,5.29167 z m 0,0"
         inkscape:connector-curvature="0"
         style="fill:#cae9fc;stroke-width:0.26458332" />
      <path
         style="stroke-width:0.26458332"
         id="path50"
         d="m -178.40476,-10.294644 c -1.46037,0 -2.64583,1.1854602 -2.64583,2.6458402 0,1.46037 1.18546,2.64583 2.64583,2.64583 1.46038,0 2.64584,-1.18546 2.64584,-2.64583 0,-1.46038 -1.18546,-2.6458402 -2.64584,-2.6458402 z m 0,0"
         inkscape:connector-curvature="0" />
      <path
         style="stroke-width:0.26458332"
         id="path52"
         d="m -222.32559,37.330356 c 1.46038,0 2.64583,-1.18546 2.64583,-2.64583 0,-1.46038 -1.18545,-2.64583 -2.64583,-2.64583 -1.46038,0 -2.64583,1.18545 -2.64583,2.64583 0,1.46037 1.18545,2.64583 2.64583,2.64583 z m 0,0"
         inkscape:connector-curvature="0" />
      <path
         style="stroke-width:0.26458332"
         id="path54"
         d="m -157.23809,-36.752974 c -23.81973,0 -43.36996,16.42277 -44.88201,37.10885019 -22.68493,1.13791001 -44.01799,17.49556981 -44.01799,39.62031981 0,9.24594 3.65869,18.20457 10.31875,25.30284 1.31775,5.43223 -0.28215,11.19002 -4.25194,15.1598 -0.75654,0.75654 -0.98288,1.89446 -0.57361,2.88355 0.40928,0.98805 1.37356,1.63297 2.4443,1.63297 7.54579,0 14.8177,-2.95899 20.22099,-8.17314 5.26376,1.7942 12.13156,2.88148 18.40818,2.88148 23.81663,0 43.36479,-16.41864 44.88098,-37.10058 5.53971,-0.24598 11.30163,-1.26917 15.86053,-2.82257 5.40328,5.21415 12.67519,8.17315 20.22099,8.17315 1.07073,0 2.03501,-0.64493 2.44429,-1.63298 0.40928,-0.98909 0.18293,-2.127 -0.57361,-2.88354 -3.96978,-3.96979 -5.56968,-9.72758 -4.25193,-15.1598 6.66005,-7.09828 10.31874,-16.0569 10.31874,-25.3028498 0,-22.9887802 -22.97637,-39.6875002 -46.56666,-39.6875002 z m -42.33333,111.125 c -6.24458,0 -13.36043,-1.22577 -18.12706,-3.12229 -1.02113,-0.40721 -2.18798,-0.13953 -2.93109,0.67179 -3.19464,3.4923 -7.34839,5.92729 -11.87421,7.0466 2.4939,-4.778 3.13056,-10.41073 1.61334,-15.74788 -0.11989,-0.42064 -0.3421,-0.80512 -0.64699,-1.11827 -6.00274,-6.18257 -9.30899,-14.04049 -9.30899,-22.12578 0,-18.64486 18.90117,-34.3958398 41.275,-34.3958398 21.12739,0 39.6875,14.6916098 39.6875,34.3958398 0,18.96628 -17.80357,34.39583 -39.6875,34.39583 z m 74.29934,-49.31172 c -0.3049,0.31419 -0.5271,0.69866 -0.64699,1.11828 -1.51722,5.33714 -0.88057,10.96987 1.61334,15.74787 -4.52583,-1.11827 -8.67958,-3.5543 -11.87422,-7.04659 -0.7431,-0.81029 -1.90996,-1.07901 -2.93108,-0.6718 -4.13102,1.64331 -10.0242,2.78123 -15.58768,3.05615 -0.77308,-10.0056 -5.76399,-19.40967 -14.2968,-26.39219 h 34.51159 c 1.46141,0 2.64583,-1.1844198 2.64583,-2.6458298 0,-1.46141 -1.18442,-2.64584 -2.64583,-2.64584 h -42.6403 c -6.00583,-3.05718 -12.74961,-4.84001001 -19.69078,-5.21415001 1.52032,-17.77049019 18.69033,-31.82751019 39.57691,-31.82751019 22.37383,0 41.275,15.75097 41.275,34.3958302 0,8.0852898 -3.30626,15.9432098 -9.30899,22.1257798 z m 0,0"
         inkscape:connector-curvature="0" />
      <path
         style="stroke-width:0.26458332"
         id="path56"
         d="m -178.40476,32.038696 h -33.3375 c -1.46141,0 -2.64583,1.18442 -2.64583,2.64583 0,1.46141 1.18442,2.64583 2.64583,2.64583 h 33.3375 c 1.46141,0 2.64584,-1.18442 2.64584,-2.64583 0,-1.46141 -1.18443,-2.64583 -2.64584,-2.64583 z m 0,0"
         inkscape:connector-curvature="0" />
      <path
         style="stroke-width:0.26458332"
         id="path58"
         d="m -178.40476,47.913696 h -43.92083 c -1.46141,0 -2.64583,1.18442 -2.64583,2.64583 0,1.46141 1.18442,2.64583 2.64583,2.64583 h 43.92083 c 1.46141,0 2.64584,-1.18442 2.64584,-2.64583 0,-1.46141 -1.18443,-2.64583 -2.64584,-2.64583 z m 0,0"
         inkscape:connector-curvature="0" />
      <path
         style="stroke-width:0.26458332"
         id="path60"
         d="m -134.48392,-10.294644 h -33.3375 c -1.46141,0 -2.64584,1.1844302 -2.64584,2.6458402 0,1.46141 1.18443,2.64583 2.64584,2.64583 h 33.3375 c 1.46141,0 2.64583,-1.18442 2.64583,-2.64583 0,-1.46141 -1.18442,-2.6458402 -2.64583,-2.6458402 z m 0,0"
         inkscape:connector-curvature="0" />
    </g>
  </g>
</svg>
